<?xml version="1.0" standalone="no"?>
<!DOCTYPE svg PUBLIC "-//W3C//DTD SVG 20010904//EN"
 "http://www.w3.org/TR/2001/REC-SVG-20010904/DTD/svg10.dtd">
<svg version="1.0" xmlns="http://www.w3.org/2000/svg"
 width="874.000000pt" height="874.000000pt" viewBox="0 0 874.000000 874.000000"
 preserveAspectRatio="xMidYMid meet">
<metadata>
Created by potrace 1.11, written by Peter Selinger 2001-2013
</metadata>
<g transform="translate(0.000000,874.000000) scale(0.100000,-0.100000)"
fill="#000000" stroke="none">
<path d="M6170 8430 l0 -311 -232 1 c-128 0 -263 1 -300 0 l-68 0 0 -321 0
-320 -57 1 c-140 1 -279 2 -293 1 -8 0 -68 0 -132 0 l-118 0 0 -311 0 -311
-62 1 c-35 1 -170 1 -300 1 l-238 -1 0 -310 0 -310 -300 0 -300 0 0 -310 c0
-288 -1 -310 -17 -311 -10 -1 -22 0 -28 1 -5 1 -16 2 -22 1 -21 -2 -36 -2 -96
1 -31 2 -57 1 -57 -2 0 -7 -70 -4 -77 3 -3 3 -16 2 -30 -4 -13 -5 -22 -6 -20
-1 5 6 -85 7 -153 1 -14 -1 -29 -1 -35 1 -5 1 -22 2 -36 1 l-27 -1 -2 -112
c-1 -62 -3 -186 -4 -275 0 -90 -3 -163 -6 -163 -3 0 -4 -18 -2 -40 l4 -40 -78
-1 c-44 -1 -137 -3 -209 -4 -71 -2 -169 -4 -216 -5 l-87 -1 -2 -92 c-1 -50 -3
-169 -4 -263 -1 -93 -6 -175 -10 -182 -4 -7 -3 -12 1 -12 9 0 10 -46 1 -55 -2
-3 -123 -7 -269 -11 -145 -3 -275 -6 -289 -7 l-25 -2 -5 -310 c-4 -269 -7
-310 -20 -306 -8 2 -22 3 -30 2 -17 -1 -45 -1 -80 2 -14 1 -37 -1 -52 -5 -15
-3 -30 -3 -33 2 -3 6 -15 6 -29 0 -15 -5 -27 -5 -34 2 -5 5 -12 6 -15 1 -3 -4
-37 -6 -76 -3 -40 3 -80 2 -90 -1 -10 -4 -23 -4 -30 1 -7 4 -27 4 -45 0 -17
-4 -40 -4 -51 0 -11 4 -23 6 -27 3 -5 -2 -8 -143 -8 -313 l0 -309 96 -3 c53
-2 97 -1 99 2 2 3 38 3 80 0 42 -3 78 -3 80 0 2 3 38 3 80 0 42 -3 78 -3 80 0
2 3 26 3 54 2 l52 -4 -5 -310 c-3 -171 -7 -312 -9 -314 -2 -2 -138 -6 -303
-10 -164 -3 -300 -7 -301 -8 -2 -1 -3 -143 -3 -314 -1 -172 -5 -310 -9 -308
-8 5 -148 10 -166 6 -5 -1 -14 -1 -20 0 -30 6 -145 4 -145 -3 0 -5 -4 -5 -10
-2 -16 10 -229 10 -240 -1 -7 -7 -14 -842 -10 -1223 0 -9 8 -12 25 -9 14 3 28
2 31 -3 2 -5 15 -5 27 0 12 5 31 5 42 1 11 -4 24 -5 28 -3 5 3 34 4 65 3 31
-1 63 -1 70 -1 25 2 39 2 122 2 108 0 127 0 137 -2 4 -1 18 -1 30 0 l22 1 1
307 c0 169 2 308 4 310 2 2 71 3 152 3 82 -1 156 -1 164 -1 8 0 75 0 148 0
l132 0 1 88 c1 131 9 516 11 531 1 9 33 12 122 13 407 2 1059 9 1062 12 2 1 5
137 8 301 3 164 7 300 9 302 2 3 242 6 533 9 291 2 531 5 534 6 3 1 9 1 13 0
5 -1 34 -2 65 -3 l57 -2 3 312 2 312 258 0 c141 0 300 0 352 -1 52 0 120 0
150 0 69 1 260 1 268 -1 4 0 44 0 90 1 l83 1 -1 308 c-1 193 2 307 9 307 5 0
13 3 16 7 4 4 15 4 24 -1 9 -5 25 -7 36 -5 19 3 44 4 88 4 9 0 24 0 32 0 8 0
23 0 33 0 9 0 50 0 91 0 40 0 77 -3 82 -5 4 -3 11 -1 14 5 5 7 11 8 19 1 7 -6
17 -6 26 -1 8 5 21 5 31 0 9 -5 19 -7 22 -4 3 3 22 6 41 6 l36 0 0 318 0 318
35 4 c19 2 35 1 35 -3 0 -3 18 -3 39 1 22 4 45 4 52 -1 7 -4 17 -5 23 -2 5 4
30 5 55 4 25 -1 53 -2 61 -1 30 0 164 -1 169 -2 3 0 11 0 16 2 6 1 33 2 60 3
l50 2 3 616 2 617 30 4 c17 3 32 2 35 0 6 -7 75 -8 75 -2 0 3 26 4 57 2 73 -3
67 -3 136 0 31 2 57 -1 57 -5 0 -4 9 -3 19 3 13 7 28 7 45 0 14 -5 26 -6 26
-2 0 6 48 8 75 2 6 -1 18 -2 28 -1 16 1 17 23 17 311 l0 310 208 1 c114 1 212
0 217 -1 12 -3 168 0 171 3 1 1 5 141 8 311 3 170 8 311 10 313 2 2 129 7 282
9 154 3 285 6 292 6 9 1 12 132 12 620 l0 618 -112 0 c-62 1 -197 0 -300 0
l-188 -1 0 311 0 310 -900 0 -900 0 0 -310z m1221 -400 c-2 -47 -4 -186 -6
-308 -2 -123 -6 -226 -8 -228 -3 -3 -140 -7 -306 -10 l-301 -5 0 321 0 320
312 -2 311 -3 -2 -85z m-1223 -2390 c-2 -330 0 -600 4 -600 3 0 3 -12 -1 -27
l-7 -28 -215 -2 c-118 -1 -251 -2 -296 -2 l-83 -1 0 -310 0 -311 -107 0 c-60
0 -115 0 -123 0 -8 0 -20 0 -25 1 -6 1 -85 2 -177 1 l-168 -1 0 -310 0 -310
-47 0 c-73 0 -82 0 -95 1 -7 0 -26 0 -43 0 -16 -1 -43 0 -60 2 -16 1 -42 -1
-57 -5 -15 -3 -30 -3 -33 2 -3 5 -16 5 -30 0 -16 -6 -27 -6 -31 1 -4 7 -10 7
-18 0 -7 -6 -15 -9 -17 -6 -3 2 -36 4 -74 4 -88 1 -102 1 -117 2 -7 0 -26 0
-43 0 -16 -1 -43 0 -60 2 -16 1 -42 -1 -57 -5 -15 -3 -30 -3 -33 2 -3 5 -16 5
-30 0 -16 -6 -27 -6 -31 1 -4 7 -10 7 -18 0 -7 -6 -15 -9 -17 -6 -3 2 -36 4
-74 4 -39 1 -78 1 -87 1 -29 0 -51 0 -90 0 l-38 0 0 -310 0 -311 -291 1 c-160
1 -293 0 -294 -2 -2 -2 -56 -1 -120 2 -64 3 -118 3 -120 0 -2 -3 -56 -3 -120
0 -64 3 -118 3 -120 0 -2 -3 -37 -4 -79 -2 l-76 4 0 310 0 310 38 -3 c21 -2
43 0 49 4 6 4 14 3 18 -3 4 -6 12 -7 22 -2 8 5 33 6 54 2 21 -4 39 -4 39 -1 0
4 15 6 33 4 17 -2 46 -3 62 -3 17 1 36 1 43 1 6 -1 18 -1 25 -2 6 0 26 0 42 1
17 0 53 0 80 -1 28 0 53 0 58 1 4 2 11 3 16 4 5 0 12 3 15 6 2 3 7 142 10 309
3 167 7 305 9 307 3 4 1114 17 1185 15 l22 -1 0 308 c0 287 1 309 18 310 18 2
200 2 210 1 4 -1 12 -1 17 0 6 1 62 1 125 1 63 -1 122 -1 130 -1 8 0 34 1 58
1 l42 1 0 310 c0 273 2 310 15 305 8 -3 15 -2 15 2 0 4 54 7 120 7 66 0 120
-4 120 -8 0 -4 9 -3 19 3 13 7 28 7 45 0 14 -5 26 -6 26 -2 0 7 36 7 92 -1 14
-2 32 -1 39 4 7 4 23 3 35 -1 13 -5 26 -5 29 -1 3 5 14 7 25 4 20 -5 20 0 20
306 l0 311 300 0 300 0 -2 -600z"/>
<path d="M4370 2180 l0 -300 300 0 300 0 0 300 0 300 -300 0 -300 0 0 -300z"/>
<path d="M230 620 c0 -3 -18 -4 -40 -2 l-40 4 0 -311 0 -311 300 0 300 0 0
295 c0 162 1 298 1 303 3 15 -43 29 -74 23 -18 -4 -52 -4 -77 0 -25 4 -47 3
-48 -2 -2 -5 -8 -7 -13 -4 -4 3 -34 5 -66 5 -61 -1 -105 0 -190 3 -29 2 -53 0
-53 -3z"/>
</g>
</svg>
